<?xml version="1.0" encoding="utf-8"?>
<!-- Generator: Adobe Illustrator 18.1.1, SVG Export Plug-In . SVG Version: 6.00 Build 0)  -->
<svg version="1.1" id="Layer_1" xmlns="http://www.w3.org/2000/svg" xmlns:xlink="http://www.w3.org/1999/xlink" x="0px" y="0px"
	 viewBox="0 0 559.9 145.1" enable-background="new 0 0 559.9 145.1" xml:space="preserve">
<g>
	<path fill="#EF6B29" d="M102.6,98.3c0,14.7-5,26.6-15.3,35.5c-8.5,7.6-18.2,11.2-29.1,11.2c-6.8,0-12.8-1.6-18-4.5
		c-3.3-1.7-6.2-4.5-8.9-8.1v9.7H0V0h31.2v63c3.3-3.5,6.6-6,9.7-7.6c5.4-2.7,11.4-4.1,17.6-4.1c10.7,0,20.2,3.5,28.5,10.7
		C97.4,71.4,102.6,83.4,102.6,98.3z M70.2,98.5c0-4.8-1.6-9.1-4.8-13c-3.9-4.7-8.9-7-15.1-7c-5.6,0-10.3,1.9-14.2,5.8
		c-3.9,3.9-5.8,8.5-5.8,14.2c0,5.6,1.9,10.3,5.8,14.2c3.9,3.9,8.5,5.8,14.2,5.8c6.2,0,11.2-2.3,15.1-7
		C68.5,107.6,70.2,103.4,70.2,98.5z"/>
	<path fill="#EF6B29" d="M217.6,98.3c0,12.2-4.1,22.7-12,31.4c-9.7,10.7-23.3,15.9-40.7,15.9s-31.2-5.2-40.9-15.9
		c-8-8.7-12-19.4-12-32.2c0-11.4,4.1-21.5,12-30.4c9.7-10.7,23.7-16.1,41.7-16.1c16.7,0,29.9,5.4,39.8,16.1
		C213.5,76,217.6,86.3,217.6,98.3z M185.2,98.3c0-5.6-1.9-10.5-6-14.5c-4.1-3.9-8.7-6-14.5-6c-6.4,0-11.6,2.3-15.7,7.2
		c-3.3,3.9-4.8,8.3-4.8,13.2c0,5,1.6,9.5,4.8,13.4c4.1,4.8,9.3,7.2,15.7,7.2c5.6,0,10.5-1.9,14.5-6
		C183.3,109,185.2,104.1,185.2,98.3z"/>
	<path fill="#EF6B29" d="M332.8,98.3c0,12.2-4.1,22.7-12,31.4c-9.7,10.7-23.3,15.9-40.7,15.9c-17.5,0-31.2-5.2-40.9-15.9
		c-8-8.7-12-19.4-12-32.2c0-11.4,4.1-21.5,12-30.4c9.7-10.7,23.7-16.1,41.7-16.1c16.7,0,29.9,5.4,39.8,16.1
		C328.7,76,332.8,86.3,332.8,98.3z M300.4,98.3c0-5.6-1.9-10.5-6-14.5c-4.1-3.9-8.7-6-14.5-6c-6.4,0-11.6,2.3-15.7,7.2
		c-3.3,3.9-4.8,8.3-4.8,13.2c0,5,1.6,9.5,4.8,13.4c4.1,4.8,9.3,7.2,15.7,7.2c5.6,0,10.5-1.9,14.5-6
		C298.5,109,300.4,104.1,300.4,98.3z"/>
	<path fill="#EF6B29" d="M412.3,112.7c0,9.3-3.3,17.1-10.1,22.9c-7.6,6.8-18,10.1-31.8,10.1c-12,0-23.9-3.3-35.1-10.1l11.2-21.9
		c8.9,5.8,17.1,8.7,24.8,8.7c6.4,0,9.7-2.3,9.7-6.8c0-2.3-1.2-4.1-3.5-5.4c-1.4-0.8-4.7-1.7-9.9-2.9c-5.8-1.2-9.5-2.3-11.2-2.9
		c-6.2-2.5-10.5-6.2-12.8-11.4c-1.2-2.9-1.7-6.2-1.7-10.3c0-7.8,2.7-14.4,8-20.2c6.8-7.4,17.3-11.1,31.2-11.1
		c9.7,0,19.2,1.9,28.5,5.6l-10.5,20.2c-5.8-3.1-11.2-4.5-16.7-4.5c-6.2,0-9.3,2.1-9.3,6.4c0,1.9,1.2,3.5,3.7,4.8
		c1.2,0.6,4.5,1.4,10.1,2.5c8.1,1.7,14.2,4.5,18,8.1C409.8,99.3,412.3,105.3,412.3,112.7z"/>
	<path fill="#EF6B29" d="M484.5,79.9h-17.6v62.4h-31.2V79.9h-18V54.5h18V28.1h31.2v26.4h17.6V79.9z"/>
	<path fill="#EF6B29" d="M559.9,83c-4.3-2.1-8.7-3.1-13.2-3.1c-10.3,0-16.9,4.3-19.8,12.6c-1.2,3.1-1.7,7.2-1.7,12.2v37.6H494V54.5
		h31.2v14.4c3.3-5,6.8-8.7,10.7-11.1c5-3.1,11.1-4.5,18-4.5c1.6,0,3.7,0,6,0.2V83z"/>
</g>
</svg>
