<?xml version="1.0" encoding="utf-8"?>
<!-- Generator: Adobe Illustrator 18.1.1, SVG Export Plug-In . SVG Version: 6.00 Build 0)  -->
<svg version="1.1" id="Layer_1" xmlns="http://www.w3.org/2000/svg" xmlns:xlink="http://www.w3.org/1999/xlink" x="0px" y="0px"
	 viewBox="0 0 75 75" enable-background="new 0 0 75 75" xml:space="preserve">
<path d="M54.7,36h-15V21c0-0.4-0.4-0.8-0.8-0.8h-2.8c-0.4,0-0.8,0.4-0.8,0.8v15h-15c-0.4,0-0.8,0.4-0.8,0.8v2.8
	c0,0.4,0.4,0.8,0.8,0.8h15v15c0,0.4,0.4,0.8,0.8,0.8h2.8c0.4,0,0.8-0.4,0.8-0.8v-15h15c0.4,0,0.8-0.4,0.8-0.8v-2.8
	C55.5,36.4,55.1,36,54.7,36z M37.5,8.2c-16.6,0-30,13.5-30,30c0,16.6,13.5,30,30,30c16.6,0,30-13.5,30-30
	C67.5,21.7,54.1,8.2,37.5,8.2z M37.5,72c-9,0-17.5-3.5-23.9-9.9S3.7,47.3,3.7,38.2c0-9,3.5-17.5,9.9-23.9s14.9-9.9,23.9-9.9
	c9,0,17.5,3.5,23.9,9.9s9.9,14.9,9.9,23.9c0,9-3.5,17.5-9.9,23.9C55,68.5,46.5,72,37.5,72z"/>
</svg>
