<svg enable-background="new 0 0 75 75" fill="#BAC1C8" id="Layer_1" version="1.1" viewBox="0 0 75 75" x="0px" xml:space="preserve" xmlns:xlink="http://www.w3.org/1999/xlink" xmlns="http://www.w3.org/2000/svg" y="0px">
  <path  clip-rule="evenodd"
    d="M62.7 22.3l-9.6-9.6c-1.3-1.3-1.3-3.5 0-4.8L57.9 3c0 0 6-6 13.3 1.2 c5.8 5.8 1.2 13.3 1.2 13.3L70 19.9l-2.4-2.4l2.4-2.4c0 0 3.6-3.6-1.2-8.4c-4.8-4.8-8.4-1.2-8.4-1.2l-4.8 4.8l9.6 9.6 c1.3 1.3 1.3 3.5 0 4.8L16.9 73L1.3 74.2l1.2-15.7l43.4-43.4l2.4 2.4L5.1 60.7L4.3 71.1l11.5-1.8L62.7 22.3z"
    fill-rule="evenodd"/>
</svg>
