<?xml version="1.0" encoding="utf-8"?>
<!-- Generator: Adobe Illustrator 18.1.1, SVG Export Plug-In . SVG Version: 6.00 Build 0)  -->
<svg version="1.1" id="Layer_1" xmlns="http://www.w3.org/2000/svg" xmlns:xlink="http://www.w3.org/1999/xlink" x="0px" y="0px"
	 viewBox="0 0 75 75" enable-background="new 0 0 75 75" xml:space="preserve">
<path d="M37.5,7.5c-16.6,0-30,13.5-30,30c0,16.6,13.5,30,30,30c16.6,0,30-13.5,30-30C67.5,20.9,54,7.5,37.5,7.5z M37.5,71.2
	c-9,0-17.5-3.5-23.9-9.9S3.7,46.5,3.7,37.5c0-9,3.5-17.5,9.9-23.9s14.9-9.9,23.9-9.9c9,0,17.5,3.5,23.9,9.9s9.9,14.9,9.9,23.9
	c0,9-3.5,17.5-9.9,23.9C55,67.7,46.5,71.2,37.5,71.2z"/>
<g>
	<path d="M48.7,35.2c-3.2-3.9-6.5-7.8-9.7-11.7c-0.6,1.5-1.2,2.9-1.8,4.4c0,0,0.1,0,0.1,0c-0.6-1.5-1.2-2.9-1.8-4.4
		c-3.2,3.9-6.5,7.8-9.7,11.7c-2.1,2.5,1.5,6.1,3.6,3.6c3.2-3.9,6.5-7.8,9.7-11.7c1.4-1.6,0.6-4.4-1.8-4.4c0,0-0.1,0-0.1,0
		c-2.4,0-3.2,2.7-1.8,4.4c3.2,3.9,6.5,7.8,9.7,11.7C47.2,41.3,50.8,37.7,48.7,35.2z"/>
	<path d="M34.7,26c0,8.8,0,17.6,0,26.5c0,3.3,5.1,3.3,5.1,0c0-8.8,0-17.6,0-26.5C39.8,22.7,34.7,22.7,34.7,26z"/>
</g>
</svg>
