<?xml version="1.0" encoding="utf-8"?>
<!-- Generator: Adobe Illustrator 13.0.0, SVG Export Plug-In . SVG Version: 6.00 Build 14948)  -->
<!DOCTYPE svg PUBLIC "-//W3C//DTD SVG 1.1//EN" "http://www.w3.org/Graphics/SVG/1.1/DTD/svg11.dtd">
<svg version="1.1" id="Layer_1" xmlns="http://www.w3.org/2000/svg" xmlns:xlink="http://www.w3.org/1999/xlink" x="0px" y="0px"
	 width="512px" height="512px" viewBox="0 0 512 512" enable-background="new 0 0 512 512" xml:space="preserve">
<path d="M256,51.2C142.677,51.2,51.2,143.36,51.2,256c0,113.322,92.16,204.8,204.8,204.8c113.322,0,204.8-92.159,204.8-204.8
	C460.8,142.677,368.64,51.2,256,51.2z M256,486.059c-61.44,0-119.467-23.894-163.157-67.584
	C49.152,374.784,25.259,317.439,25.259,256c0-61.44,23.893-119.467,67.584-163.157C136.533,49.152,194.56,25.259,256,25.259
	c61.44,0,119.467,23.893,163.157,67.584c43.689,43.69,67.584,101.717,67.584,163.157c0,61.439-23.895,119.467-67.584,163.157
	C375.467,462.165,317.44,486.059,256,486.059z"/>
<g>
	<g>
		<polyline fill="none" stroke="#000000" stroke-width="15.7975" points="119.237,166.435 257.032,283.619 394.832,166.435 		"/>
		<line fill="none" stroke="#000000" stroke-width="15.7975" x1="119.237" y1="337.112" x2="214.754" y2="243.161"/>
		<line fill="none" stroke="#000000" stroke-width="15.7975" x1="395.811" y1="337.112" x2="300.293" y2="243.161"/>
	</g>
	<path fill="none" stroke="#000000" stroke-width="25.2759" d="M399.105,330.171c0,6.326-5.092,11.447-11.378,11.447H126.827
		c-6.282,0-11.373-5.121-11.373-11.447V176.396c0-6.325,5.091-11.451,11.373-11.451h260.901c6.286,0,11.378,5.125,11.378,11.451
		V330.171L399.105,330.171z"/>
</g>
</svg>
