<?xml version="1.0" encoding="utf-8"?>
<!-- Generator: Adobe Illustrator 13.0.0, SVG Export Plug-In . SVG Version: 6.00 Build 14948)  -->
<!DOCTYPE svg PUBLIC "-//W3C//DTD SVG 1.1//EN" "http://www.w3.org/Graphics/SVG/1.1/DTD/svg11.dtd">
<svg version="1.1" id="Layer_1" xmlns="http://www.w3.org/2000/svg" xmlns:xlink="http://www.w3.org/1999/xlink" x="0px" y="0px"
	viewBox="0 0 512 512" enable-background="new 0 0 512 512" xml:space="preserve">
<path d="M256,51.2C142.677,51.2,51.2,143.36,51.2,256c0,113.322,92.16,204.8,204.8,204.8c113.322,0,204.8-92.159,204.8-204.8
	C460.8,142.677,368.64,51.2,256,51.2z M256,486.059c-61.44,0-119.467-23.894-163.157-67.584
	C49.152,374.784,25.259,317.439,25.259,256c0-61.44,23.893-119.467,67.584-163.157C136.533,49.152,194.56,25.259,256,25.259
	c61.44,0,119.467,23.893,163.157,67.584c43.69,43.69,67.584,101.717,67.584,163.157c0,61.439-23.894,119.467-67.584,163.157
	C375.467,462.165,317.44,486.059,256,486.059z"/>
<g>
	<path fill="none" stroke="#010101" stroke-width="16.9844" stroke-miterlimit="10" d="M159.069,150.989
		c-13.568,0-24.569,10.997-24.569,24.564s11,24.573,24.569,24.573c13.563,0,24.564-11.006,24.564-24.573
		S172.632,150.989,159.069,150.989z"/>
	<path fill="none" stroke="#010101" stroke-width="16.9844" stroke-miterlimit="10" d="M159.069,233.391
		c-13.568,0-24.569,11.004-24.569,24.572c0,13.566,11,24.556,24.569,24.556c13.563,0,24.564-10.989,24.564-24.556
		C183.633,244.395,172.632,233.391,159.069,233.391z"/>
	<path fill="none" stroke="#010101" stroke-width="16.9844" stroke-miterlimit="10" d="M159.069,315.79
		c-13.568,0-24.569,10.997-24.569,24.565c0,13.567,11,24.564,24.569,24.564c13.563,0,24.564-10.997,24.564-24.564
		C183.633,326.787,172.632,315.79,159.069,315.79z"/>
	<path d="M384.858,170.271h-174.36c-3.201,0-5.814,1.128-5.814,2.521v15.098c0,1.401,2.613,2.521,5.814,2.521h174.36
		c3.208,0,5.821-1.12,5.821-2.521v-15.098C390.68,171.399,388.066,170.271,384.858,170.271z"/>
	<path d="M384.858,248.807h-174.36c-3.201,0-5.814,1.127-5.814,2.514v15.109c0,1.394,2.613,2.521,5.814,2.521h174.36
		c3.208,0,5.821-1.127,5.821-2.521v-15.109C390.68,249.935,388.066,248.807,384.858,248.807z"/>
	<path d="M384.858,327.335h-174.36c-3.201,0-5.814,1.137-5.814,2.521v15.101c0,1.401,2.613,2.521,5.814,2.521h174.36
		c3.208,0,5.821-1.12,5.821-2.521v-15.101C390.68,328.472,388.066,327.335,384.858,327.335z"/>
</g>
</svg>
