<?xml version="1.0" encoding="utf-8"?>
<!-- Generator: Adobe Illustrator 13.0.0, SVG Export Plug-In . SVG Version: 6.00 Build 14948)  -->
<!DOCTYPE svg PUBLIC "-//W3C//DTD SVG 1.1//EN" "http://www.w3.org/Graphics/SVG/1.1/DTD/svg11.dtd">
<svg version="1.1" id="Layer_1" xmlns="http://www.w3.org/2000/svg" xmlns:xlink="http://www.w3.org/1999/xlink" x="0px" y="0px"
	viewBox="0 0 512 512" enable-background="new 0 0 512 512" xml:space="preserve">
<path d="M256,51.2C142.677,51.2,51.2,143.36,51.2,256c0,113.322,92.16,204.8,204.8,204.8c113.322,0,204.8-92.159,204.8-204.8
	C460.8,142.677,368.64,51.2,256,51.2z M256,486.059c-61.44,0-119.467-23.894-163.157-67.584
	C49.152,374.784,25.259,317.439,25.259,256c0-61.44,23.893-119.467,67.584-163.157C136.533,49.152,194.56,25.259,256,25.259
	c61.44,0,119.467,23.893,163.157,67.584c43.69,43.69,67.584,101.717,67.584,163.157c0,61.439-23.894,119.467-67.584,163.157
	C375.467,462.165,317.44,486.059,256,486.059z"/>
<g>
	<path d="M313.135,129.522h-28.47c0-14.413-12.733-26.12-28.484-26.12c-15.714,0-28.479,11.707-28.479,26.12h-28.479v26.112h113.911
		V129.522z M256.181,142.579c-7.873,0-14.244-5.841-14.244-13.056c0-7.207,6.371-13.064,14.244-13.064
		c7.873,0,14.248,5.857,14.248,13.064C270.429,136.737,264.054,142.579,256.181,142.579z"/>
	<path d="M327.387,129.522v39.167H184.979v-39.167H156.5v261.159h199.357V129.522H327.387z"/>
	<path fill="#FFFFFF" d="M336.695,360.619c0,7.012-6.998,12.692-15.635,12.692H193.62c-8.636,0-15.629-5.681-15.629-12.692V200.764
		c0-7.004,6.993-12.684,15.629-12.684h127.44c8.637,0,15.635,5.68,15.635,12.684V360.619z"/>
	<path d="M315.511,229.049c-5.413-3.215-13.017-2.221-16.967,2.189l-61.421,68.738L216.69,278.85
		c-4.169-4.298-11.804-5.033-17.051-1.632c-5.268,3.385-6.161,9.623-2.012,13.896l40.283,41.673l80.266-89.88
		C322.119,238.478,320.939,232.273,315.511,229.049z"/>
</g>
</svg>
