<?xml version="1.0" encoding="UTF-8"?>
<svg width="22px" height="14px" viewBox="0 0 22 14" version="1.1" xmlns="http://www.w3.org/2000/svg" xmlns:xlink="http://www.w3.org/1999/xlink">
    <!-- Generator: Sketch 41.2 (35397) - http://www.bohemiancoding.com/sketch -->
    <title>icon-agency-meeting</title>
    <desc>Created with Sketch.</desc>
    <defs>
        <linearGradient x1="100%" y1="0%" x2="-0.937391846%" y2="100%" id="linearGradient-1">
            <stop stop-color="#FF9F20" offset="0%"></stop>
            <stop stop-color="#FF721C" offset="100%"></stop>
        </linearGradient>
        <path d="M9.73419753,8.23666667 L8.98538272,8.23666667 C8.15834568,8.23666667 7.48777778,7.56609877 7.48777778,6.73903704 L7.48777778,6.25795062 C7.81908642,5.86417284 8.05671605,5.39839506 8.20441975,4.90622222 C8.21975309,4.82325926 8.29960494,4.7822716 8.3528642,4.72523457 C8.63955556,4.43859259 8.69592593,3.9548642 8.48088889,3.61044444 C8.45160494,3.55817284 8.3988642,3.51283951 8.40185185,3.44807407 C8.40185185,3.00896296 8.40404938,2.56916049 8.40128395,2.13039506 C8.38953086,1.60064198 8.23812346,1.04958025 7.86671605,0.657308642 C7.5668642,0.34037037 7.1551358,0.151654321 6.73037037,0.0708888889 C6.19360494,-0.0315061728 5.63204938,-0.0263209877 5.10041975,0.10891358 C4.6397037,0.225185185 4.2068642,0.495012346 3.93923457,0.894987654 C3.70224691,1.24271605 3.59841975,1.66493827 3.58088889,2.08106173 C3.57432099,2.52782716 3.57938272,2.9757037 3.57802469,3.42355556 C3.58822222,3.51320988 3.51217284,3.57387654 3.47782716,3.64809877 C3.27528395,4.01553086 3.36444444,4.51612346 3.68990123,4.78335802 C3.77246914,4.84034568 3.78792593,4.94422222 3.81782716,5.03377778 C3.95975309,5.47617284 4.19516049,5.88530864 4.49276543,6.24180247 L4.49276543,6.73903704 C4.49276543,7.56609877 3.82222222,8.23666667 2.99520988,8.23666667 L2.24637037,8.23666667 C2.24637037,8.23666667 0.889234568,8.61093827 0,10.482963 L0,11.2317778 C0,11.6455802 0.33491358,11.9804444 0.748814815,11.9804444 L11.2318272,11.9804444 C11.6456296,11.9804444 11.9805185,11.6455802 11.9805185,11.2317778 L11.9805185,10.482963 C11.0913333,8.61108642 9.73419753,8.23666667 9.73419753,8.23666667 Z" id="path-2"></path>
        <mask id="mask-3" maskContentUnits="userSpaceOnUse" maskUnits="objectBoundingBox" x="-1" y="-1" width="13.9805185" height="13.9803931">
            <rect x="-1" y="-0.99994861" width="13.9805185" height="13.9803931" fill="white"></rect>
            <use xlink:href="#path-2" fill="black"></use>
        </mask>
    </defs>
    <g id="Page-1" stroke="none" stroke-width="1" fill="none" fill-rule="evenodd">
        <g id="Home-Dashboard" transform="translate(-749.000000, -829.000000)">
            <g id="icon-agency-meeting" transform="translate(749.000000, 830.000000)">
                <g id="black-(5)-copy-3" transform="translate(13.000000, 2.000000)" fill="url(#linearGradient-1)">
                    <g id="Capa_1">
                        <path d="M7.30064815,6.1775 L6.73903704,6.1775 C6.11875926,6.1775 5.61583333,5.67457407 5.61583333,5.05427778 L5.61583333,4.69346296 C5.86431481,4.39812963 6.04253704,4.0487963 6.15331481,3.67966667 C6.16481481,3.61744444 6.2247037,3.5867037 6.26464815,3.54392593 C6.47966667,3.32894444 6.52194444,2.96614815 6.36066667,2.70783333 C6.3387037,2.66862963 6.29914815,2.63462963 6.30138889,2.58605556 C6.30138889,2.25672222 6.30303704,1.92687037 6.30096296,1.5977963 C6.29214815,1.20048148 6.17859259,0.787185185 5.90003704,0.492981481 C5.67514815,0.255277778 5.36635185,0.113740741 5.04777778,0.0531666667 C4.6452037,-0.0236296296 4.22403704,-0.0197407407 3.82531481,0.0816851852 C3.47977778,0.168888889 3.15514815,0.371259259 2.95442593,0.671240741 C2.77668519,0.932037037 2.69881481,1.2487037 2.68566667,1.5607963 C2.68074074,1.89587037 2.68453704,2.23177778 2.68351852,2.56766667 C2.69116667,2.63490741 2.63412963,2.68040741 2.60837037,2.73607407 C2.45646296,3.01164815 2.52333333,3.38709259 2.76742593,3.58751852 C2.82935185,3.63025926 2.84094444,3.70816667 2.86337037,3.77533333 C2.96981481,4.10712963 3.14637037,4.41398148 3.36957407,4.68135185 L3.36957407,5.05427778 C3.36957407,5.67457407 2.86666667,6.1775 2.24640741,6.1775 L1.68477778,6.1775 C1.68477778,6.1775 0.666925926,6.4582037 0,7.86222222 L0,8.42383333 C0,8.73418519 0.251185185,8.98533333 0.561611111,8.98533333 L8.42387037,8.98533333 C8.73422222,8.98533333 8.98538889,8.73418519 8.98538889,8.42383333 L8.98538889,7.86222222 C8.3185,6.45831481 7.30064815,6.1775 7.30064815,6.1775 Z" id="Shape"></path>
                    </g>
                </g>
                <g id="black-(5)-copy-4" transform="translate(0.000000, 2.000000)" fill="url(#linearGradient-1)">
                    <g id="Capa_1">
                        <path d="M7.30064815,6.1775 L6.73903704,6.1775 C6.11875926,6.1775 5.61583333,5.67457407 5.61583333,5.05427778 L5.61583333,4.69346296 C5.86431481,4.39812963 6.04253704,4.0487963 6.15331481,3.67966667 C6.16481481,3.61744444 6.2247037,3.5867037 6.26464815,3.54392593 C6.47966667,3.32894444 6.52194444,2.96614815 6.36066667,2.70783333 C6.3387037,2.66862963 6.29914815,2.63462963 6.30138889,2.58605556 C6.30138889,2.25672222 6.30303704,1.92687037 6.30096296,1.5977963 C6.29214815,1.20048148 6.17859259,0.787185185 5.90003704,0.492981481 C5.67514815,0.255277778 5.36635185,0.113740741 5.04777778,0.0531666667 C4.6452037,-0.0236296296 4.22403704,-0.0197407407 3.82531481,0.0816851852 C3.47977778,0.168888889 3.15514815,0.371259259 2.95442593,0.671240741 C2.77668519,0.932037037 2.69881481,1.2487037 2.68566667,1.5607963 C2.68074074,1.89587037 2.68453704,2.23177778 2.68351852,2.56766667 C2.69116667,2.63490741 2.63412963,2.68040741 2.60837037,2.73607407 C2.45646296,3.01164815 2.52333333,3.38709259 2.76742593,3.58751852 C2.82935185,3.63025926 2.84094444,3.70816667 2.86337037,3.77533333 C2.96981481,4.10712963 3.14637037,4.41398148 3.36957407,4.68135185 L3.36957407,5.05427778 C3.36957407,5.67457407 2.86666667,6.1775 2.24640741,6.1775 L1.68477778,6.1775 C1.68477778,6.1775 0.666925926,6.4582037 0,7.86222222 L0,8.42383333 C0,8.73418519 0.251185185,8.98533333 0.561611111,8.98533333 L8.42387037,8.98533333 C8.73422222,8.98533333 8.98538889,8.73418519 8.98538889,8.42383333 L8.98538889,7.86222222 C8.3185,6.45831481 7.30064815,6.1775 7.30064815,6.1775 Z" id="Shape"></path>
                    </g>
                </g>
                <g id="black-(5)-copy" transform="translate(5.000000, 0.000000)">
                    <g id="Capa_1">
                        <g id="Shape">
                            <use fill="url(#linearGradient-1)" fill-rule="evenodd" xlink:href="#path-2"></use>
                            <use stroke="#FFFFFF" mask="url(#mask-3)" stroke-width="2" xlink:href="#path-2"></use>
                        </g>
                    </g>
                </g>
            </g>
        </g>
    </g>
</svg>