<?xml version="1.0" encoding="UTF-8"?>
<svg width="12px" height="12px" viewBox="0 0 12 12" version="1.1" xmlns="http://www.w3.org/2000/svg" xmlns:xlink="http://www.w3.org/1999/xlink">
    <!-- Generator: Sketch 41.2 (35397) - http://www.bohemiancoding.com/sketch -->
    <title>button-plus-icon</title>
    <desc>Created with Sketch.</desc>
    <defs></defs>
    <g id="Page-1" stroke="none" stroke-width="1" fill="none" fill-rule="evenodd">
        <g id="Home-Dashboard" transform="translate(-1274.000000, -237.000000)" fill="#FFFFFF">
            <path d="M1285.18596,241.953453 L1281.04649,241.953453 L1281.04649,237.813951 C1281.04649,237.557049 1280.69764,237 1279.99997,237 C1279.3023,237 1278.95345,237.557079 1278.95345,237.813951 L1278.95345,241.953483 L1274.81395,241.953483 C1274.55708,241.953453 1274,242.302302 1274,242.999939 C1274,243.697576 1274.55708,244.046456 1274.81395,244.046456 L1278.95348,244.046456 L1278.95348,248.185988 C1278.95348,248.442829 1279.3023,248.999939 1280,248.999939 C1280.6977,248.999939 1281.04652,248.442829 1281.04652,248.185988 L1281.04652,244.046456 L1285.18605,244.046456 C1285.44289,244.046456 1286,243.697637 1286,242.999939 C1286,242.302241 1285.44283,241.953453 1285.18596,241.953453 Z" id="button-plus-icon"></path>
        </g>
    </g>
</svg>