<?xml version="1.0" encoding="UTF-8"?>
<svg width="12px" height="12px" viewBox="0 0 12 12" version="1.1" xmlns="http://www.w3.org/2000/svg" xmlns:xlink="http://www.w3.org/1999/xlink">
    <!-- Generator: Sketch 41.2 (35397) - http://www.bohemiancoding.com/sketch -->
    <title>button-assign-icon</title>
    <desc>Created with Sketch.</desc>
    <defs></defs>
    <g id="Page-1" stroke="none" stroke-width="1" fill="none" fill-rule="evenodd">
        <g id="Home-Dashboard" transform="translate(-1340.000000, -959.000000)" fill="#FFFFFF">
            <path d="M1349.75003,967.250009 L1348.99999,967.250009 C1348.17161,967.250009 1347.49995,966.57835 1347.49995,965.749944 L1347.49995,965.268075 C1347.8318,964.873657 1348.06982,964.407122 1348.21776,963.914149 C1348.23312,963.831051 1348.3131,963.789997 1348.36645,963.732867 C1348.6536,963.445759 1348.71007,962.961244 1348.49468,962.616264 C1348.46535,962.563907 1348.41252,962.5185 1348.41551,962.45363 C1348.41551,962.013804 1348.41772,961.573287 1348.41495,961.133808 C1348.40317,960.603193 1348.25152,960.051235 1347.87951,959.658326 C1347.57917,959.340872 1347.16677,959.151849 1346.74131,959.070953 C1346.20368,958.968391 1345.64121,958.973585 1345.10871,959.109039 C1344.64725,959.2255 1344.2137,959.495766 1343.94564,959.896392 C1343.70827,960.244685 1343.60427,960.667594 1343.58671,961.084394 C1343.58013,961.531886 1343.5852,961.980491 1343.58384,962.429071 C1343.59406,962.518871 1343.51788,962.579637 1343.48348,962.653979 C1343.28061,963.022009 1343.36992,963.523416 1343.6959,963.791085 C1343.7786,963.848165 1343.79409,963.952211 1343.82404,964.041912 C1343.96619,964.485026 1344.20198,964.894827 1344.50007,965.251901 L1344.50007,965.749944 C1344.50007,966.57835 1343.82844,967.250009 1343.00008,967.250009 L1342.25002,967.250009 C1342.25002,967.250009 1340.89068,967.624889 1340,969.499958 L1340,970.24999 C1340,970.664466 1340.33546,970.999874 1340.75003,970.999874 L1351.25009,970.999874 C1351.66457,970.999874 1352,970.664466 1352,970.24999 L1352,969.499958 C1351.10937,967.625037 1349.75003,967.250009 1349.75003,967.250009 Z" id="button-assign-icon"></path>
        </g>
    </g>
</svg>