<?xml version="1.0" encoding="UTF-8"?>
<svg width="18px" height="18px" viewBox="0 0 18 18" version="1.1" xmlns="http://www.w3.org/2000/svg" xmlns:xlink="http://www.w3.org/1999/xlink">
    <!-- Generator: Sketch 41.2 (35397) - http://www.bohemiancoding.com/sketch -->
    <title>icon-client-meeting</title>
    <desc>Created with Sketch.</desc>
    <defs>
        <linearGradient x1="100%" y1="0%" x2="-0.937391846%" y2="100%" id="linearGradient-1">
            <stop stop-color="#FF9F20" offset="0%"></stop>
            <stop stop-color="#FF721C" offset="100%"></stop>
        </linearGradient>
    </defs>
    <g id="Page-1" stroke="none" stroke-width="1" fill="none" fill-rule="evenodd">
        <g id="Home-Dashboard" transform="translate(-751.000000, -703.000000)" fill="url(#linearGradient-1)">
            <path d="M765.601296,715.355 L764.478074,715.355 C763.237519,715.355 762.231667,714.349148 762.231667,713.108556 L762.231667,712.386926 C762.72863,711.796259 763.085074,711.097593 763.30663,710.359333 C763.32963,710.234889 763.449407,710.173407 763.529296,710.087852 C763.959333,709.657889 764.043889,708.932296 763.721333,708.415667 C763.677407,708.337259 763.598296,708.269259 763.602778,708.172111 C763.602778,707.513444 763.606074,706.853741 763.601926,706.195593 C763.584296,705.400963 763.357185,704.57437 762.800074,703.985963 C762.350296,703.510556 761.732704,703.227481 761.095556,703.106333 C760.290407,702.952741 759.448074,702.960519 758.65063,703.16337 C757.959556,703.337778 757.310296,703.742519 756.908852,704.342481 C756.55337,704.864074 756.39763,705.497407 756.371333,706.121593 C756.361481,706.791741 756.369074,707.463556 756.367037,708.135333 C756.382333,708.269815 756.268259,708.360815 756.216741,708.472148 C755.912926,709.023296 756.046667,709.774185 756.534852,710.175037 C756.658704,710.260519 756.681889,710.416333 756.726741,710.550667 C756.93963,711.214259 757.292741,711.827963 757.739148,712.362704 L757.739148,713.108556 C757.739148,714.349148 756.733333,715.355 755.492815,715.355 L754.369556,715.355 C754.369556,715.355 752.333852,715.916407 751,718.724444 L751,719.847667 C751,720.46837 751.50237,720.970667 752.123222,720.970667 L767.847741,720.970667 C768.468444,720.970667 768.970778,720.46837 768.970778,719.847667 L768.970778,718.724444 C767.637,715.91663 765.601296,715.355 765.601296,715.355 Z" id="icon-client-meeting"></path>
        </g>
    </g>
</svg>