<?xml version="1.0" encoding="utf-8"?>
<!-- Generator: Adobe Illustrator 18.1.1, SVG Export Plug-In . SVG Version: 6.00 Build 0)  -->
<svg version="1.1" id="Layer_1" xmlns="http://www.w3.org/2000/svg" xmlns:xlink="http://www.w3.org/1999/xlink" x="0px" y="0px"
	 viewBox="0 0 75 75" enable-background="new 0 0 75 75" xml:space="preserve">
<path d="M59.4,75H6.2c-0.9,0-1.6-0.7-1.6-1.6V19c0-0.4,0.1-0.8,0.4-1L20.7,0.5C21,0.2,21.4,0,21.9,0h37.5c0.9,0,1.6,0.7,1.6,1.6
	v35.9c0,0.9-0.7,1.6-1.6,1.6s-1.6-0.7-1.6-1.6V3.1H22.6L7.8,19.6v52.3h50v-6.2c0-0.9,0.7-1.6,1.6-1.6s1.6,0.7,1.6,1.6v7.8
	C60.9,74.3,60.2,75,59.4,75z"/>
<path d="M21.9,21.9H7.8c-0.9,0-1.6-0.7-1.6-1.6c0-0.9,0.7-1.6,1.6-1.6h12.5V3.1c0-0.9,0.7-1.6,1.6-1.6s1.6,0.7,1.6,1.6v17.2
	C23.4,21.2,22.7,21.9,21.9,21.9z"/>
<path d="M28.1,40.6c-0.9,0-1.6,0.7-1.6,1.6v18.8c0,0.9,0.7,1.6,1.6,1.6h37.5c0.9,0,1.6-0.7,1.6-1.6V42.2c0-0.9-0.7-1.6-1.6-1.6H28.1
	z M65.6,65.6H28.1c-2.6,0-4.7-2.1-4.7-4.7V42.2c0-2.6,2.1-4.7,4.7-4.7h37.5c2.6,0,4.7,2.1,4.7,4.7v18.8
	C70.3,63.5,68.2,65.6,65.6,65.6z"/>
<path d="M41.3,55.9c0.1,0,0.2,0,0.2,0.1l0.6,0.7c-0.5,0.6-1.1,1-1.8,1.3c-0.7,0.3-1.5,0.5-2.5,0.5c-0.8,0-1.6-0.1-2.3-0.4
	c-0.7-0.3-1.3-0.7-1.8-1.2c-0.5-0.5-0.9-1.2-1.1-1.9c-0.3-0.7-0.4-1.6-0.4-2.4s0.1-1.7,0.4-2.4c0.3-0.7,0.7-1.4,1.2-1.9
	c0.5-0.5,1.1-0.9,1.9-1.2c0.7-0.3,1.5-0.4,2.4-0.4c0.9,0,1.6,0.1,2.2,0.4c0.6,0.3,1.2,0.6,1.7,1.1l-0.5,0.7c0,0.1-0.1,0.1-0.1,0.1
	c0,0-0.1,0.1-0.2,0.1c-0.1,0-0.1,0-0.2-0.1c-0.1-0.1-0.2-0.1-0.3-0.2c-0.1-0.1-0.2-0.2-0.4-0.2c-0.1-0.1-0.3-0.2-0.5-0.2
	c-0.2-0.1-0.4-0.1-0.7-0.2c-0.3-0.1-0.6-0.1-0.9-0.1c-0.6,0-1.2,0.1-1.7,0.3c-0.5,0.2-1,0.5-1.3,0.9c-0.4,0.4-0.7,0.9-0.9,1.5
	c-0.2,0.6-0.3,1.2-0.3,1.9c0,0.7,0.1,1.4,0.3,2c0.2,0.6,0.5,1.1,0.9,1.5c0.4,0.4,0.8,0.7,1.3,0.9c0.5,0.2,1,0.3,1.6,0.3
	c0.4,0,0.7,0,0.9-0.1c0.3,0,0.5-0.1,0.8-0.2c0.2-0.1,0.5-0.2,0.7-0.3c0.2-0.1,0.4-0.3,0.6-0.5C41.2,56,41.2,55.9,41.3,55.9
	L41.3,55.9z"/>
<path d="M50.3,48.4c-0.1,0.1-0.1,0.1-0.2,0.2c-0.1,0-0.1,0.1-0.2,0.1c-0.1,0-0.2-0.1-0.3-0.1c-0.1-0.1-0.3-0.2-0.5-0.3
	c-0.2-0.1-0.4-0.2-0.7-0.3c-0.3-0.1-0.6-0.1-1-0.1c-0.4,0-0.7,0-0.9,0.1c-0.3,0.1-0.5,0.2-0.7,0.4c-0.2,0.2-0.3,0.4-0.4,0.6
	c-0.1,0.2-0.1,0.5-0.1,0.7c0,0.3,0.1,0.6,0.2,0.8c0.2,0.2,0.4,0.4,0.6,0.6c0.3,0.2,0.6,0.3,0.9,0.4c0.3,0.1,0.7,0.2,1,0.3
	c0.3,0.1,0.7,0.3,1,0.4c0.3,0.1,0.6,0.3,0.9,0.6c0.3,0.2,0.5,0.5,0.6,0.8c0.2,0.3,0.2,0.7,0.2,1.2c0,0.5-0.1,1-0.3,1.4
	c-0.2,0.5-0.4,0.8-0.8,1.2c-0.3,0.3-0.8,0.6-1.2,0.8c-0.5,0.2-1,0.3-1.7,0.3c-0.8,0-1.4-0.1-2.1-0.4c-0.6-0.3-1.2-0.6-1.6-1.1
	l0.5-0.8c0-0.1,0.1-0.1,0.2-0.2c0.1,0,0.1-0.1,0.2-0.1c0.1,0,0.2,0.1,0.4,0.2c0.1,0.1,0.3,0.3,0.6,0.4c0.2,0.1,0.5,0.3,0.8,0.4
	c0.3,0.1,0.7,0.2,1.1,0.2c0.4,0,0.7-0.1,1-0.2c0.3-0.1,0.5-0.2,0.8-0.4c0.2-0.2,0.4-0.4,0.5-0.7c0.1-0.3,0.2-0.6,0.2-0.9
	c0-0.4-0.1-0.6-0.2-0.9c-0.2-0.2-0.4-0.4-0.6-0.6c-0.3-0.2-0.6-0.3-0.9-0.4c-0.3-0.1-0.7-0.2-1-0.3c-0.4-0.1-0.7-0.2-1-0.4
	c-0.3-0.2-0.6-0.3-0.9-0.6c-0.3-0.2-0.5-0.5-0.6-0.9c-0.2-0.4-0.2-0.8-0.2-1.3c0-0.4,0.1-0.8,0.2-1.2c0.2-0.4,0.4-0.7,0.7-1
	c0.3-0.3,0.7-0.5,1.1-0.7c0.4-0.2,1-0.3,1.5-0.3c0.7,0,1.3,0.1,1.8,0.3c0.5,0.2,1,0.5,1.4,0.9L50.3,48.4L50.3,48.4z"/>
<path d="M51.6,46.6h1.3c0.1,0,0.3,0,0.3,0.1c0.1,0.1,0.2,0.2,0.2,0.3l3.3,8.3c0.1,0.2,0.1,0.4,0.2,0.6c0.1,0.2,0.1,0.4,0.2,0.7
	c0.1-0.2,0.1-0.5,0.2-0.7c0.1-0.2,0.1-0.4,0.2-0.6l3.3-8.3c0-0.1,0.1-0.2,0.2-0.3c0.1-0.1,0.2-0.1,0.3-0.1h1.3l-4.8,11.7h-1.4
	L51.6,46.6L51.6,46.6z"/>
</svg>
