<?xml version="1.0" encoding="UTF-8"?>
<svg width="23px" height="15px" viewBox="0 0 23 15" version="1.1" xmlns="http://www.w3.org/2000/svg" xmlns:xlink="http://www.w3.org/1999/xlink">
    <!-- Generator: Sketch 41.2 (35397) - http://www.bohemiancoding.com/sketch -->
    <title>icon-email</title>
    <desc>Created with Sketch.</desc>
    <defs>
        <linearGradient x1="100%" y1="0%" x2="-0.937391846%" y2="100%" id="linearGradient-1">
            <stop stop-color="#FF9F20" offset="0%"></stop>
            <stop stop-color="#FF721C" offset="100%"></stop>
        </linearGradient>
        <path d="M1.05905646,0.0150123902 C0.783382329,0.0150123902 0.532235825,0.120679958 0.343295747,0.291713975 L9.19790512,9.41482391 C9.59976683,9.82882631 10.2572801,9.82882631 10.6591418,9.41482391 L19.5137967,0.291669295 C19.3248566,0.120635278 19.0737101,0.0149677104 18.798036,0.0149677104 L1.05905646,0.0149677104 L1.05905646,0.0150123902 Z" id="path-2"></path>
        <mask id="mask-3" maskContentUnits="userSpaceOnUse" maskUnits="objectBoundingBox" x="-1" y="-1" width="21.170501" height="11.710358">
            <rect x="-0.656704253" y="-0.98503229" width="21.170501" height="11.710358" fill="white"></rect>
            <use xlink:href="#path-2" fill="black"></use>
        </mask>
    </defs>
    <g id="Page-1" stroke="none" stroke-width="1" fill="none" fill-rule="evenodd">
        <g id="activity-types" transform="translate(-81.000000, -344.000000)">
            <g id="icon-email" transform="translate(83.000000, 345.000000)">
                <g id="Layer_1">
                    <path d="M19.5137967,0.291669295 L9.92854623,6.27272171 L0.343295747,0.291669295 C0.13301345,0.482004956 0,0.753568371 0,1.05479913 L0,12.8122261 C0,13.1149313 0.134287613,13.3876117 0.346344636,13.5780367 L9.92850072,7.60002253 L19.775364,13.8520575 L19.8570014,13.8520575 L19.8570014,1.05479913 C19.8570925,0.753568371 19.724079,0.482004956 19.5137967,0.291669295 Z" id="Shape" fill="#FF7200"></path>
                    <path d="M19.5137967,0.291669295 L9.92854623,6.27272171 L0.343295747,0.291669295 C0.13301345,0.482004956 0,0.753568371 0,1.05479913 L0,12.8122261 C0,13.1149313 0.134287613,13.3876117 0.346344636,13.5780367 L9.92850072,7.60002253 L19.775364,13.8520575 L19.8570014,13.8520575 L19.8570014,1.05479913 C19.8570925,0.753568371 19.724079,0.482004956 19.5137967,0.291669295 Z" id="Shape-Copy" fill="#000000" opacity="0.100000001"></path>
                    <path d="M1.05905646,13.8520575 L19.7754551,13.8520575 L13.0911993,6.93353496 L6.7658477,6.93353496 L0.346344636,13.5780814 C0.534920667,13.7475069 0.784838515,13.8520575 1.05905646,13.8520575 Z" id="Shape" fill="url(#linearGradient-1)"></path>
                    <g id="Shape">
                        <use fill="url(#linearGradient-1)" fill-rule="evenodd" xlink:href="#path-2"></use>
                        <use stroke="#FFFFFF" mask="url(#mask-3)" stroke-width="2" xlink:href="#path-2"></use>
                    </g>
                </g>
            </g>
        </g>
    </g>
</svg>