<?xml version="1.0" encoding="UTF-8" standalone="no"?>
<!-- Created with Inkscape (http://www.inkscape.org/) -->

<svg
   xmlns:dc="http://purl.org/dc/elements/1.1/"
   xmlns:cc="http://creativecommons.org/ns#"
   xmlns:rdf="http://www.w3.org/1999/02/22-rdf-syntax-ns#"
   xmlns:svg="http://www.w3.org/2000/svg"
   xmlns="http://www.w3.org/2000/svg"
   xmlns:sodipodi="http://sodipodi.sourceforge.net/DTD/sodipodi-0.dtd"
   xmlns:inkscape="http://www.inkscape.org/namespaces/inkscape"
   width="75"
   height="75"
   viewBox="0 0 75.000001 75.000001"
   id="svg2"
   version="1.1"
   inkscape:version="0.91 r13725"
   sodipodi:docname="export.svg">
  <defs
     id="defs4" />
  <sodipodi:namedview
     id="base"
     pagecolor="#ffffff"
     bordercolor="#666666"
     borderopacity="1.0"
     inkscape:pageopacity="0.0"
     inkscape:pageshadow="2"
     inkscape:zoom="2.8"
     inkscape:cx="108.52953"
     inkscape:cy="138.72942"
     inkscape:document-units="px"
     inkscape:current-layer="layer1"
     showgrid="false"
     inkscape:window-width="1855"
     inkscape:window-height="1056"
     inkscape:window-x="65"
     inkscape:window-y="24"
     inkscape:window-maximized="1"
     units="px" />
  <metadata
     id="metadata7">
    <rdf:RDF>
      <cc:Work
         rdf:about="">
        <dc:format>image/svg+xml</dc:format>
        <dc:type
           rdf:resource="http://purl.org/dc/dcmitype/StillImage" />
        <dc:title></dc:title>
      </cc:Work>
    </rdf:RDF>
  </metadata>
  <g
     inkscape:label="Layer 1"
     inkscape:groupmode="layer"
     id="layer1"
     transform="translate(0,-977.36216)">
    <g
       id="g3351"
       transform="matrix(-1,0,0,-1,74.804477,1053.6509)"
       inkscape:export-filename="/home/trizes/Documents/icon.svg"
       inkscape:export-xdpi="1.89854"
       inkscape:export-ydpi="1.89854">
      <path
         id="path3337"
         d="m 37.5,7.5 c -16.6,0 -30,13.5 -30,30 0,16.6 13.5,30 30,30 16.6,0 30,-13.5 30,-30 0,-16.6 -13.5,-30 -30,-30 z m 0,63.7 C 28.5,71.2 20,67.7 13.6,61.3 7.2,54.9 3.7,46.5 3.7,37.5 3.7,28.5 7.2,20 13.6,13.6 20,7.2 28.5,3.7 37.5,3.7 c 9,0 17.5,3.5 23.9,9.9 6.4,6.4 9.9,14.9 9.9,23.9 0,9 -3.5,17.5 -9.9,23.9 -6.4,6.3 -14.9,9.8 -23.9,9.8 z"
         inkscape:connector-curvature="0" />
      <g
         id="g3339">
        <path
           id="path3341"
           d="M 48.7,35.2 C 45.5,31.3 42.2,27.4 39,23.5 c -0.6,1.5 -1.2,2.9 -1.8,4.4 0,0 0.1,0 0.1,0 -0.6,-1.5 -1.2,-2.9 -1.8,-4.4 -3.2,3.9 -6.5,7.8 -9.7,11.7 -2.1,2.5 1.5,6.1 3.6,3.6 3.2,-3.9 6.5,-7.8 9.7,-11.7 1.4,-1.6 0.6,-4.4 -1.8,-4.4 0,0 -0.1,0 -0.1,0 -2.4,0 -3.2,2.7 -1.8,4.4 3.2,3.9 6.5,7.8 9.7,11.7 2.1,2.5 5.7,-1.1 3.6,-3.6 z"
           inkscape:connector-curvature="0" />
        <path
           id="path3343"
           d="m 34.7,26 c 0,8.8 0,17.6 0,26.5 0,3.3 5.1,3.3 5.1,0 0,-8.8 0,-17.6 0,-26.5 0,-3.3 -5.1,-3.3 -5.1,0 z"
           inkscape:connector-curvature="0" />
      </g>
    </g>
  </g>
</svg>
