<?xml version="1.0" encoding="UTF-8"?>
<svg width="20px" height="19px" viewBox="0 0 20 19" version="1.1" xmlns="http://www.w3.org/2000/svg" xmlns:xlink="http://www.w3.org/1999/xlink">
    <!-- Generator: Sketch 41.2 (35397) - http://www.bohemiancoding.com/sketch -->
    <title>icon-feedback</title>
    <desc>Created with Sketch.</desc>
    <defs>
        <linearGradient x1="100%" y1="0%" x2="-0.937391846%" y2="100%" id="linearGradient-1">
            <stop stop-color="#FF9F20" offset="0%"></stop>
            <stop stop-color="#FF721C" offset="100%"></stop>
        </linearGradient>
    </defs>
    <g id="Page-1" stroke="none" stroke-width="1" fill="none" fill-rule="evenodd">
        <g id="Home-Dashboard" transform="translate(-750.000000, -289.000000)" fill="url(#linearGradient-1)">
            <g id="icon-feedback" transform="translate(750.000000, 289.000000)">
                <path d="M10,0.240044643 C4.47714286,0.240044643 0,4.00051786 0,8.63736607 C0,10.8328839 1.00428571,12.8345 2.64857143,14.33075 C2.58571429,15.7888304 2.30285714,17.7492232 1.30285714,18.7599554 C3.21285714,18.7599554 5.16857143,17.4163839 6.32857143,16.4484018 C7.46571429,16.8270446 8.70428571,17.0346875 10,17.0346875 C15.5228571,17.0346875 20,13.2742143 20,8.63736607 C20,4.00051786 15.5228571,0.240044643 10,0.240044643 Z M5,7.26472894 C5,6.76504274 5.40439725,6.35996704 5.90507045,6.35996704 L14.0949295,6.35996704 C14.5947862,6.35996704 15,6.76155902 15,7.26472894 C15,7.76441514 14.5956028,8.16949085 14.0949295,8.16949085 L5.90507045,8.16949085 C5.40521384,8.16949085 5,7.76789886 5,7.26472894 Z M5,10.8837766 C5,10.3840904 5.40323257,9.97901466 5.90467524,9.97901466 L11.5953248,9.97901466 C12.0949631,9.97901466 12.5,10.3806066 12.5,10.8837766 C12.5,11.3834628 12.0967674,11.7885385 11.5953248,11.7885385 L5.90467524,11.7885385 C5.4050369,11.7885385 5,11.3869465 5,10.8837766 Z" id="Combined-Shape"></path>
            </g>
        </g>
    </g>
</svg>