<?xml version="1.0" encoding="UTF-8"?>
<svg width="12px" height="20px" viewBox="0 0 12 20" version="1.1" xmlns="http://www.w3.org/2000/svg" xmlns:xlink="http://www.w3.org/1999/xlink">
    <!-- Generator: Sketch 41.2 (35397) - http://www.bohemiancoding.com/sketch -->
    <title>icon-initial-meeting</title>
    <desc>Created with Sketch.</desc>
    <defs>
        <linearGradient x1="100%" y1="0%" x2="-0.937391846%" y2="100%" id="linearGradient-1">
            <stop stop-color="#FF9F20" offset="0%"></stop>
            <stop stop-color="#FF721C" offset="100%"></stop>
        </linearGradient>
    </defs>
    <g id="Page-1" stroke="none" stroke-width="1" fill="none" fill-rule="evenodd">
        <g id="activity-types" transform="translate(-85.000000, -71.000000)" fill="url(#linearGradient-1)">
            <g id="icon-initial-meeting" transform="translate(85.000000, 71.000000)">
                <g id="Capa_1">
                    <path d="M11.2885714,10.41 C10.8668571,10.2710345 10.4019429,10.4210345 10.1389714,10.7824138 L7.54628571,14.3458621 C7.21062857,14.8068966 7.3104,15.4541379 7.7688,15.7913793 C8.22685714,16.1282759 8.87108571,16.0286207 9.20605714,15.5675862 L9.94011429,14.5589655 L9.94011429,14.9975862 C9.94011429,16.6048276 8.63965714,17.9127586 7.0416,17.9127586 C5.4432,17.9127586 4.14274286,16.6048276 4.14274286,14.9975862 L4.14274286,5.40655172 C5.17165714,4.9937931 5.9016,3.98344828 5.9016,2.80344828 C5.9016,1.25793103 4.6512,0 3.11417143,0 C1.57714286,0 0.326742857,1.25758621 0.326742857,2.80344828 C0.326742857,3.98344828 1.05668571,4.9937931 2.0856,5.40655172 L2.0856,14.997931 C2.0856,17.7462069 4.30868571,19.982069 7.0416,19.982069 C9.77417143,19.982069 11.9972571,17.7462069 11.9972571,14.997931 L11.9972571,11.3934483 C11.9979429,10.9458621 11.7116571,10.5493103 11.2885714,10.41 Z M3.11451429,1.53448276 C3.81053038,1.53448276 4.37622857,2.10343209 4.37622857,2.80344828 C4.37622857,3.50346446 3.81053038,4.07241379 3.11451429,4.07241379 C2.41849819,4.07241379 1.8528,3.50346446 1.8528,2.80344828 C1.8528,2.10343209 2.41909054,1.53448276 3.11451429,1.53448276 Z" id="Shape"></path>
                </g>
            </g>
        </g>
    </g>
</svg>