<?xml version="1.0" encoding="UTF-8"?>
<svg width="18px" height="19px" viewBox="0 0 18 19" version="1.1" xmlns="http://www.w3.org/2000/svg" xmlns:xlink="http://www.w3.org/1999/xlink">
    <defs></defs>
    <g id="Page-1" stroke="none" stroke-width="1" fill="none" fill-rule="evenodd">
        <g id="activity-types" transform="translate(-84.000000, -251.000000)" fill-rule="nonzero" fill="#FF7200">
            <g id="icon-internal-meeting" transform="translate(84.000000, 251.917195)">
                <path d="M9,4.32654545 C10.1812121,4.32654545 11.1421818,3.36551515 11.1421818,2.18436364 C11.1421818,1.00321212 10.1812121,0.0421818182 9,0.0421818182 C7.81878788,0.0421818182 6.85781818,1.00321212 6.85781818,2.18436364 C6.85781818,3.36551515 7.81878788,4.32654545 9,4.32654545 Z" id="Shape"></path>
                <path d="M9.45042424,5.01945455 C9.40278788,4.96757576 9.33315152,4.94145455 9.26272727,4.94145455 L8.73727273,4.94145455 C8.66684848,4.94145455 8.59721212,4.96757576 8.54957576,5.01945455 C8.47581818,5.09981818 8.46515152,5.21587879 8.51745455,5.30660606 L8.79830303,5.73006061 L8.66678788,6.83927273 L8.92569697,7.52806061 C8.9509697,7.59733333 9.04890909,7.59733333 9.07418182,7.52806061 L9.33309091,6.83927273 L9.20157576,5.73006061 L9.48242424,5.30660606 C9.53490909,5.21587879 9.52418182,5.09975758 9.45042424,5.01945455 Z" id="Shape"></path>
                <path d="M5.70115152,9.96781818 L12.2987273,9.96781818 C12.4669697,9.96781818 12.6038788,9.83090909 12.6038788,9.66266667 L12.6038788,6.914 C12.6038788,6.11315152 12.0847273,5.402 11.312,5.14448485 L10.7095758,4.95957576 C10.5993333,4.92551515 10.4818788,4.98406061 10.442303,5.09254545 L9,9.04987879 L7.55769697,5.09248485 C7.52569697,5.00484848 7.4429697,4.94987879 7.35430303,4.94987879 C7.33321212,4.94987879 7.31175758,4.9529697 7.29066667,4.95951515 L6.69284848,5.14290909 C5.91521212,5.40206061 5.39606061,6.11315152 5.39606061,6.914 L5.39606061,9.66266667 C5.39606061,9.83090909 5.5329697,9.96781818 5.70115152,9.96781818 Z" id="Shape"></path>
                <path d="M2.14212121,5.42145455 C3.32333333,5.42145455 4.28430303,4.46048485 4.28430303,3.27933333 C4.28430303,2.09812121 3.32327273,1.13715152 2.14212121,1.13715152 C0.960969697,1.13715152 0,2.09818182 0,3.27933333 C0,4.46054545 0.960969697,5.42145455 2.14212121,5.42145455 Z" id="Shape"></path>
                <path d="M5.78854545,11.3102424 L4.08236364,11.3102424 L4.08236364,7.94024242 C4.08236364,6.86866667 3.21369697,6 2.14218182,6 C1.07066667,6 0.202,6.86866667 0.202,7.94018182 L0.202,12.5180606 C0.202,13.5468485 1.036,14.3808485 2.06478788,14.3808485 L4.27854545,14.3808485 L4.27854545,17.4313333 C4.27854545,17.7221212 4.51424242,17.9578182 4.8050303,17.9578182 L6.8489697,17.9578182 C7.13975758,17.9578182 7.37545455,17.7221212 7.37545455,17.4313333 L7.37545455,12.8971515 C7.37545455,12.0207273 6.6649697,11.3102424 5.78854545,11.3102424 L5.78854545,11.3102424 Z" id="Shape"></path>
                <path d="M15.8578788,5.42145455 C17.0390909,5.42145455 18,4.46048485 18,3.27933333 C18,2.09812121 17.0390303,1.13715152 15.8578788,1.13715152 C14.6767273,1.13715152 13.715697,2.09818182 13.715697,3.27933333 C13.7156364,4.46054545 14.6766667,5.42145455 15.8578788,5.42145455 Z" id="Shape"></path>
                <path d="M15.8578182,6 C14.7862424,6 13.9176364,6.86866667 13.9176364,7.94018182 L13.9176364,11.3101818 L12.2115152,11.3101818 C11.3350909,11.3101818 10.6246061,12.0206667 10.6246061,12.8970909 L10.6246061,17.4312727 C10.6246061,17.7220606 10.860303,17.9577576 11.1510909,17.9577576 L13.1950303,17.9577576 C13.4858182,17.9577576 13.7215152,17.7220606 13.7215152,17.4312727 L13.7215152,14.3807879 L15.9352727,14.3807879 C16.9640606,14.3807879 17.7980606,13.5467879 17.7980606,12.518 L17.7980606,7.94012121 C17.7980606,6.86866667 16.9293939,6 15.8578182,6 Z" id="Shape"></path>
            </g>
        </g>
    </g>
</svg>