<?xml version="1.0" encoding="utf-8"?>
<!-- Generator: Adobe Illustrator 13.0.0, SVG Export Plug-In . SVG Version: 6.00 Build 14948)  -->
<!DOCTYPE svg PUBLIC "-//W3C//DTD SVG 1.1//EN" "http://www.w3.org/Graphics/SVG/1.1/DTD/svg11.dtd">
<svg version="1.1" id="Layer_1" xmlns="http://www.w3.org/2000/svg" xmlns:xlink="http://www.w3.org/1999/xlink" x="0px" y="0px"
	viewBox="0 0 512 512" enable-background="new 0 0 512 512" xml:space="preserve">
<path d="M256,51.2C142.677,51.2,51.2,143.36,51.2,256c0,113.322,92.16,204.8,204.8,204.8c113.322,0,204.8-92.159,204.8-204.8
	C460.8,142.677,368.64,51.2,256,51.2z M256,486.059c-61.44,0-119.467-23.894-163.157-67.584
	C49.152,374.784,25.259,317.439,25.259,256c0-61.44,23.893-119.467,67.584-163.157C136.533,49.152,194.56,25.259,256,25.259
	c61.44,0,119.467,23.893,163.157,67.584c43.69,43.69,67.584,101.717,67.584,163.157c0,61.439-23.894,119.467-67.584,163.157
	C375.467,462.165,317.44,486.059,256,486.059z"/>
<g>
	<g>
		<path d="M349.625,157.206v-22.009c0-4.027-3.895-7.328-8.715-7.328h-34.875c-4.821,0-8.724,3.301-8.724,7.328v22.009h-87.188
			v-22.009c0-4.027-3.897-7.328-8.715-7.328h-34.875c-4.817,0-8.719,3.301-8.719,7.328v22.009h-34.875V362.5H384.5V157.206H349.625z
			 M314.757,142.529h17.438v38.322h-17.438V142.529z M175.252,142.529h17.442v38.322h-17.442V142.529z"/>
	</g>
	<g>
		<path fill="#FFFFFF" d="M280.785,202.796h-53.926c-2.475,0-4.494,2.019-4.494,4.494v53.93c0,2.475,2.02,4.498,4.494,4.498h53.926
			c2.482,0,4.498-2.023,4.498-4.498v-53.93C285.283,204.814,283.268,202.796,280.785,202.796z"/>
		<path fill="#FFFFFF" d="M361.685,202.796H307.76c-2.482,0-4.499,2.019-4.499,4.494v53.93c0,2.475,2.017,4.498,4.499,4.498h53.925
			c2.475,0,4.491-2.023,4.491-4.498v-53.93C366.176,204.814,364.159,202.796,361.685,202.796z"/>
		<path fill="#FFFFFF" d="M280.785,283.688h-53.926c-2.475,0-4.494,2.023-4.494,4.499v53.934c0,2.474,2.02,4.49,4.494,4.49h53.926
			c2.482,0,4.498-2.017,4.498-4.49v-53.934C285.283,285.711,283.268,283.688,280.785,283.688z"/>
		<path fill="#FFFFFF" d="M361.685,283.688H307.76c-2.482,0-4.499,2.023-4.499,4.499v53.934c0,2.474,2.017,4.49,4.499,4.49h53.925
			c2.475,0,4.491-2.017,4.491-4.49v-53.934C366.176,285.711,364.159,283.688,361.685,283.688z"/>
	</g>
	<g>
		<path fill="#FFFFFF" d="M199.893,202.796h-53.929c-2.476,0-4.494,2.019-4.494,4.494v53.93c0,2.475,2.019,4.498,4.494,4.498h53.929
			c2.475,0,4.495-2.023,4.495-4.498v-53.93C204.387,204.814,202.368,202.796,199.893,202.796z"/>
		<path fill="#FFFFFF" d="M199.893,283.688h-53.929c-2.476,0-4.494,2.023-4.494,4.499v53.934c0,2.474,2.019,4.49,4.494,4.49h53.929
			c2.475,0,4.495-2.017,4.495-4.49v-53.934C204.387,285.711,202.368,283.688,199.893,283.688z"/>
	</g>
</g>
</svg>
