<?xml version="1.0" encoding="utf-8"?>
<!-- Generator: Adobe Illustrator 13.0.0, SVG Export Plug-In . SVG Version: 6.00 Build 14948)  -->
<!DOCTYPE svg PUBLIC "-//W3C//DTD SVG 1.1//EN" "http://www.w3.org/Graphics/SVG/1.1/DTD/svg11.dtd">
<svg version="1.1" id="Layer_1" xmlns="http://www.w3.org/2000/svg" xmlns:xlink="http://www.w3.org/1999/xlink" x="0px" y="0px"
	viewBox="0 0 512 512" enable-background="new 0 0 512 512" xml:space="preserve">
<path d="M256,51.2C142.677,51.2,51.2,143.36,51.2,256c0,113.322,92.16,204.8,204.8,204.8c113.322,0,204.8-92.159,204.8-204.8
	C460.8,142.677,368.64,51.2,256,51.2z M256,486.059c-61.44,0-119.467-23.894-163.157-67.584
	C49.152,374.784,25.259,317.439,25.259,256c0-61.44,23.893-119.467,67.584-163.157C136.533,49.152,194.56,25.259,256,25.259
	c61.44,0,119.467,23.893,163.157,67.584c43.69,43.69,67.584,101.717,67.584,163.157c0,61.439-23.894,119.467-67.584,163.157
	C375.467,462.165,317.44,486.059,256,486.059z"/>
<g>
	<path d="M271.654,318.909H155.63c-23.213,0-46.422-23.208-46.422-46.426v-92.815c0-23.209,23.209-46.418,46.422-46.418h185.658
		c23.186,0,46.401,23.208,46.401,46.418v92.815c0,23.218-23.216,46.426-46.401,46.426v69.619L271.654,318.909z"/>
</g>
<g>
	<path fill="#FFFFFF" d="M280.799,287.413H170.937c-16.196,0-32.391-16.196-32.391-32.395v-64.776
		c0-16.196,16.195-32.389,32.391-32.389h158.457c16.18,0,32.378,16.192,32.378,32.389v64.776c0,16.199-16.198,32.395-32.378,32.395
		v48.588L280.799,287.413z"/>
</g>
</svg>
