<?xml version="1.0" encoding="utf-8"?>
<!-- Generator: Adobe Illustrator 13.0.0, SVG Export Plug-In . SVG Version: 6.00 Build 14948)  -->
<!DOCTYPE svg PUBLIC "-//W3C//DTD SVG 1.1//EN" "http://www.w3.org/Graphics/SVG/1.1/DTD/svg11.dtd">
<svg version="1.1" id="Layer_1" xmlns="http://www.w3.org/2000/svg" xmlns:xlink="http://www.w3.org/1999/xlink" x="0px" y="0px"
	viewBox="0 0 512 512" enable-background="new 0 0 512 512" xml:space="preserve">
<path d="M256,51.2C142.677,51.2,51.2,143.36,51.2,256c0,113.322,92.16,204.8,204.8,204.8c113.322,0,204.8-92.159,204.8-204.8
	C460.8,142.677,368.64,51.2,256,51.2z M256,486.059c-61.44,0-119.467-23.894-163.157-67.584
	C49.152,374.784,25.259,317.439,25.259,256c0-61.44,23.893-119.467,67.584-163.157C136.533,49.152,194.56,25.259,256,25.259
	c61.44,0,119.467,23.893,163.157,67.584c43.69,43.69,67.584,101.717,67.584,163.157c0,61.439-23.894,119.467-67.584,163.157
	C375.467,462.165,317.44,486.059,256,486.059z"/>
<g>
	<path fill="none" stroke="#010101" stroke-width="22.7484" d="M380.343,254.474c0,68.712-55.701,124.405-124.41,124.405
		c-68.708,0-124.405-55.693-124.405-124.405c0-68.704,55.697-124.405,124.405-124.405
		C324.642,130.068,380.343,185.77,380.343,254.474z"/>
	<path fill="none" stroke="#010101" stroke-width="15.1656" d="M338.4,348.252c-26.14-22.801-42.66-56.36-42.66-93.778
		c0-37.01,16.165-70.251,41.815-93.038"/>
	
		<line fill="none" stroke="#010101" stroke-width="15.1656" stroke-linecap="round" x1="278.708" y1="251.519" x2="315.422" y2="251.519"/>
	
		<line fill="none" stroke="#010101" stroke-width="15.1656" stroke-linecap="round" x1="284.307" y1="211.932" x2="319.77" y2="221.44"/>
	
		<line fill="none" stroke="#010101" stroke-width="15.1656" stroke-linecap="round" x1="302.908" y1="170.056" x2="331.025" y2="193.648"/>
	
		<line fill="none" stroke="#010101" stroke-width="15.1656" stroke-linecap="round" x1="284.307" y1="289.256" x2="319.77" y2="279.755"/>
	
		<line fill="none" stroke="#010101" stroke-width="15.1656" stroke-linecap="round" x1="302.908" y1="331.139" x2="331.025" y2="307.538"/>
	<path fill="none" stroke="#010101" stroke-width="15.1656" d="M174.211,348.252c26.14-22.801,42.656-56.36,42.656-93.778
		c0-37.01-16.161-70.251-41.816-93.038"/>
	
		<line fill="none" stroke="#010101" stroke-width="15.1656" stroke-linecap="round" x1="233.9" y1="251.519" x2="197.192" y2="251.519"/>
	
		<line fill="none" stroke="#010101" stroke-width="15.1656" stroke-linecap="round" x1="228.302" y1="211.932" x2="192.842" y2="221.44"/>
	
		<line fill="none" stroke="#010101" stroke-width="15.1656" stroke-linecap="round" x1="209.7" y1="170.056" x2="181.583" y2="193.648"/>
	
		<line fill="none" stroke="#010101" stroke-width="15.1656" stroke-linecap="round" x1="228.302" y1="289.256" x2="192.842" y2="279.755"/>
	
		<line fill="none" stroke="#010101" stroke-width="15.1656" stroke-linecap="round" x1="209.7" y1="331.139" x2="181.583" y2="307.538"/>
</g>
</svg>
