<?xml version="1.0" encoding="UTF-8"?>
<svg width="21px" height="20px" viewBox="0 0 21 20" version="1.1" xmlns="http://www.w3.org/2000/svg" xmlns:xlink="http://www.w3.org/1999/xlink">
    <!-- Generator: Sketch 41.2 (35397) - http://www.bohemiancoding.com/sketch -->
    <title>icon-pitch</title>
    <desc>Created with Sketch.</desc>
    <defs>
        <linearGradient x1="128.083691%" y1="50%" x2="-44.7862309%" y2="50%" id="linearGradient-1">
            <stop stop-color="#FF9F20" offset="0%"></stop>
            <stop stop-color="#FF721C" offset="100%"></stop>
        </linearGradient>
    </defs>
    <g id="Page-1" stroke="none" stroke-width="1" fill="none" fill-rule="evenodd">
        <g id="Home-Dashboard" transform="translate(-749.000000, -432.000000)" fill="url(#linearGradient-1)">
            <g id="icon-pitch" transform="translate(760.000000, 442.000000) rotate(-45.000000) translate(-760.000000, -442.000000) translate(750.000000, 432.000000)">
                <path d="M9.77926505,7.95807864e-13 C15.1804864,7.95807864e-13 19.5585301,4.37869475 19.5585301,9.77926505 C19.5585301,15.1804864 15.1810723,19.5585301 9.77926505,19.5585301 C4.37928065,19.5585952 -2.84217094e-13,15.1811374 -2.84217094e-13,9.77926505 C0.000585900488,4.37928065 4.37928065,7.95807864e-13 9.77926505,7.95807864e-13 Z M9.77926505,12.835322 C6.8375238,12.835322 4.2050729,14.1414895 2.41241271,16.1969586 C2.81460085,16.6590388 3.25773692,17.0813428 3.73869612,17.4597044 C5.19641653,15.7538225 7.36008193,14.6689301 9.77926505,14.6689301 C12.1984482,14.6689301 14.3621136,15.7538225 15.819183,17.4597044 C16.3002073,17.0813428 16.7445803,16.6583878 17.1467033,16.1969586 C15.3541082,14.1414244 12.7216573,12.835322 9.77926505,12.835322 Z M15.819834,2.09947675 C14.3633505,3.80594447 12.1990341,4.89025098 9.77926505,4.89025098 C7.36014703,4.89025098 5.19641653,3.80535857 3.73934712,2.09889085 C3.25890872,2.47842417 2.81460085,2.90137922 2.41241271,3.3616366 C4.2050729,5.41892852 6.8375238,6.7238591 9.77926505,6.7238591 C12.7210063,6.7238591 15.3541082,5.41892852 17.1473543,3.3616366 C16.7445803,2.90137922 16.3008583,2.47842417 15.819834,2.09947675 Z" id="Combined-Shape"></path>
            </g>
        </g>
    </g>
</svg>