<?xml version="1.0" encoding="utf-8"?>
<!-- Generator: Adobe Illustrator 18.1.1, SVG Export Plug-In . SVG Version: 6.00 Build 0)  -->
<svg version="1.1" id="Layer_1" xmlns="http://www.w3.org/2000/svg" xmlns:xlink="http://www.w3.org/1999/xlink" x="0px" y="0px"
	 viewBox="0 0 75 75" enable-background="new 0 0 75 75" xml:space="preserve">
<path d="M37.5,12.8c-13.6,0-24.7,11.1-24.7,24.7c0,13.6,11.1,24.7,24.7,24.7c13.6,0,24.7-11.1,24.7-24.7S51.1,12.8,37.5,12.8z
	 M37.5,65.2c-15.3,0-27.7-12.4-27.7-27.7c0-15.3,12.4-27.7,27.7-27.7s27.7,12.4,27.7,27.7S52.8,65.2,37.5,65.2z"/>
<path d="M37.5,30.1c-3.5,0-6.3,2.8-6.3,6.3c0,3.5,2.8,6.3,6.3,6.3s6.3-2.8,6.3-6.3C43.8,32.9,41,30.1,37.5,30.1z M37.5,45.7
	c-5.1,0-9.3-4.2-9.3-9.3s4.2-9.3,9.3-9.3s9.3,4.2,9.3,9.3S42.6,45.7,37.5,45.7z"/>
<path d="M24,58.1c4,2.6,8.6,4,13.5,4s9.5-1.4,13.5-4c-1-6.6-6.7-11.5-13.5-11.5S25.1,51.5,24,58.1z M37.5,65.2
	c-5.8,0-11.3-1.8-16-5.1l-0.7-0.5l0.1-0.9c0.8-8.6,7.9-15.1,16.6-15.1s15.8,6.5,16.6,15.1l0.1,0.9l-0.7,0.5
	C48.8,63.4,43.2,65.2,37.5,65.2z"/>
</svg>
