<?xml version="1.0" encoding="utf-8"?>
<!-- Generator: Adobe Illustrator 13.0.0, SVG Export Plug-In . SVG Version: 6.00 Build 14948)  -->
<!DOCTYPE svg PUBLIC "-//W3C//DTD SVG 1.1//EN" "http://www.w3.org/Graphics/SVG/1.1/DTD/svg11.dtd">
<svg version="1.1" id="Layer_1" xmlns="http://www.w3.org/2000/svg" xmlns:xlink="http://www.w3.org/1999/xlink" x="0px" y="0px"
	viewBox="0 0 512 512" enable-background="new 0 0 512 512" xml:space="preserve">
<path d="M256,51.2C142.677,51.2,51.2,143.36,51.2,256c0,113.322,92.16,204.8,204.8,204.8c113.322,0,204.8-92.159,204.8-204.8
	C460.8,142.677,368.64,51.2,256,51.2z M256,486.059c-61.44,0-119.467-23.894-163.157-67.584
	C49.152,374.784,25.259,317.439,25.259,256c0-61.44,23.893-119.467,67.584-163.157C136.533,49.152,194.56,25.259,256,25.259
	c61.44,0,119.467,23.893,163.157,67.584c43.69,43.69,67.584,101.717,67.584,163.157c0,61.439-23.894,119.467-67.584,163.157
	C375.467,462.165,317.44,486.059,256,486.059z"/>
<g>
	<polygon fill="none" stroke="#010101" stroke-width="15.8363" stroke-linejoin="round" stroke-miterlimit="10" points="
		117.243,282.188 358.5,139.411 329.944,344.236 	"/>
	<path d="M276.488,222.458c5.961-5.125,8.907,2.536,6.875,5.159c-5.592,7.183-61.15,85.3-61.15,85.3l42.344,11.816l-67.552,63.887
		c0,0-11.816,15.758-11.816-4.919c0-20.675,0.042-81.733,0.042-81.733S253.669,242.092,276.488,222.458z"/>
</g>
</svg>
