<?xml version="1.0" encoding="UTF-8"?>
<svg width="20px" height="19px" viewBox="0 0 20 19" version="1.1" xmlns="http://www.w3.org/2000/svg" xmlns:xlink="http://www.w3.org/1999/xlink">
    <!-- Generator: Sketch 41.2 (35397) - http://www.bohemiancoding.com/sketch -->
    <title>icon-proposal</title>
    <desc>Created with Sketch.</desc>
    <defs>
        <linearGradient x1="100%" y1="0%" x2="-0.937391846%" y2="100%" id="linearGradient-1">
            <stop stop-color="#FF9F20" offset="0%"></stop>
            <stop stop-color="#FF721C" offset="100%"></stop>
        </linearGradient>
    </defs>
    <g id="Page-1" stroke="none" stroke-width="1" fill="none" fill-rule="evenodd">
        <g id="Home-Dashboard" transform="translate(-750.000000, -558.000000)">
            <g id="icon-proposal" transform="translate(750.000000, 558.000000)">
                <path d="M19.8684776,0.102293117 C19.7796418,0.0236616804 19.6530746,0.00541870544 19.5458507,0.0555718347 L0.172716418,9.13322802 C0.0684179104,9.18211678 0.00125373134,9.28705904 -9.53271377e-14,9.40301934 C-0.00125373134,9.51897964 0.0637014925,9.62536689 0.166985075,9.67648334 L5.26501065,12.0116879 C5.36554796,12.0614798 5.48542856,12.050221 5.57521961,11.9825474 C5.57521961,11.9825474 12.8681013,7.10510046 13.1415546,7.18220126 C13.4150079,7.25930205 7.34051392,12.7642966 7.34051392,12.7642966 C7.28081242,12.8262505 7.25036466,12.9110833 7.25693183,12.9971806 L7.67358854,18.4694108 C7.68284227,18.5906694 7.76343929,18.6943472 7.87800645,18.7323384 C7.90863332,18.7424533 7.94009601,18.7473904 7.97120048,18.7473904 C8.05651392,18.7473904 8.13949899,18.7104829 8.19723033,18.6430502 L10.8722985,15.1619593 L14.4696119,16.8953429 C14.5477015,16.9329728 14.6380896,16.9345382 14.7174328,16.8997381 C14.7967761,16.8648778 14.857194,16.7970837 14.8831045,16.7138765 L19.9564179,0.418805723 C19.9918806,0.305012908 19.9573134,0.180924554 19.8684776,0.102293117 Z" id="Shape" fill="url(#linearGradient-1)"></path>
                <polygon id="Path-2" fill="#000000" opacity="0.200000003" points="10.8717697 15.1363351 7.27847055 12.7895707 7.91258217 18.7402947"></polygon>
            </g>
        </g>
    </g>
</svg>