<?xml version="1.0" encoding="UTF-8"?>
<svg width="17px" height="20px" viewBox="0 0 17 20" version="1.1" xmlns="http://www.w3.org/2000/svg" xmlns:xlink="http://www.w3.org/1999/xlink">
    <!-- Generator: Sketch 41.2 (35397) - http://www.bohemiancoding.com/sketch -->
    <title>icon-qbr</title>
    <desc>Created with Sketch.</desc>
    <defs>
        <linearGradient x1="100%" y1="0%" x2="-0.937391846%" y2="100%" id="linearGradient-1">
            <stop stop-color="#FF9F20" offset="0%"></stop>
            <stop stop-color="#FF721C" offset="100%"></stop>
        </linearGradient>
    </defs>
    <g id="Page-1" stroke="none" stroke-width="1" fill="none" fill-rule="evenodd">
        <g id="Home-Dashboard" transform="translate(-752.000000, -971.000000)">
            <g id="icon-qbr" transform="translate(752.000000, 971.000000)">
                <path d="M12.3684008,20 L1.27090559,20 C0.569942197,20 0,19.44195 0,18.7556126 L0,1.24438743 C0,0.558050032 0.569942197,0 1.27090559,0 L15.7290944,0 C16.4300578,0 17,0.558050032 17,1.24438743 L17,15.4714561 L12.3749518,15.4714561 L12.3749518,20 L12.3684008,20 Z" id="Shape" fill="url(#linearGradient-1)"></path>
                <path d="M11.9538732,7.42947877 L11.3250674,6.81416616 C11.2388471,6.72973262 11.1339867,6.6875 11.0107293,6.6875 C10.8873584,6.6875 10.7824981,6.72973262 10.6962778,6.81416616 L7.66311719,9.78672445 L6.30375455,8.45199939 C6.21743707,8.36753416 6.11264149,8.32534908 5.98938402,8.32534908 C5.86604557,8.32534908 5.76125,8.36753416 5.67493252,8.45199939 L5.04612669,9.06732785 C4.95980921,9.15177724 4.91666667,9.25435575 4.91666667,9.37503169 C4.91666667,9.49561255 4.95980921,9.59828615 5.04612669,9.68271969 L6.71985986,11.3205054 L7.34871427,11.935818 C7.43498317,12.0203149 7.53981113,12.0625 7.66311719,12.0625 C7.78637466,12.0625 7.89120262,12.020204 7.9775201,11.935818 L8.60635832,11.3205054 L11.9538732,8.04483892 C12.0401097,7.96037368 12.0833333,7.85781102 12.0833333,7.73713507 C12.083398,7.61652252 12.0401097,7.51394401 11.9538732,7.42947877 Z" id="Shape" fill="#FFFFFF"></path>
                <polygon id="Shape" fill="#FF7200" points="12.3707692 20 12.3707692 15.474359 16.9869231 15.474359"></polygon>
                <polygon id="Shape-Copy-2" fill="#000000" opacity="0.200000003" points="12.3707692 20 12.3707692 15.474359 16.9869231 15.474359"></polygon>
            </g>
        </g>
    </g>
</svg>