<?xml version="1.0" encoding="UTF-8" standalone="no"?>
<svg width="18px" height="17px" viewBox="0 0 18 17" version="1.1" xmlns="http://www.w3.org/2000/svg" xmlns:xlink="http://www.w3.org/1999/xlink">
    <!-- Generator: Sketch 3.8.3 (29802) - http://www.bohemiancoding.com/sketch -->
    <title>reminder</title>
    <desc>Created with Sketch.</desc>
    <defs></defs>
    <g id="Page-1" stroke="none" stroke-width="1" fill="none" fill-rule="evenodd">
        <g id="People" transform="translate(-754.000000, -204.000000)" fill="#2B3C49">
            <g id="reminder" transform="translate(754.000000, 204.000000)">
                <path d="M16.26,9.1270625 C16.26,5.2118125 13.0389574,2.0578125 9.04034043,2.0578125 C5.0417234,2.0578125 1.82074468,5.21175 1.82074468,9.1270625 C1.82074468,11.251125 2.7737234,13.14675 4.27985106,14.4409375 L2.59819149,16.0875 C2.37606383,16.305 2.37606383,16.6313125 2.59819149,16.8488125 C2.70925532,16.9575625 2.82031915,16.9575625 3.04244681,16.9575625 C3.26457447,16.9575625 3.3756383,16.9575625 3.48670213,16.8488125 L5.23831915,15.1336875 C6.34238298,15.803625 7.64189362,16.19625 9.0402766,16.19625 C10.4098085,16.19625 11.6837872,15.818875 12.7733617,15.175 L14.4827234,16.84875 C14.5937872,16.9575 14.7048511,16.9575 14.9269787,16.9575 C15.1491064,16.9575 15.2601702,16.9575 15.371234,16.84875 C15.5933617,16.63125 15.5933617,16.3049375 15.371234,16.0874375 L13.7417872,14.4919375 C15.2825745,13.1978125 16.26,11.279375 16.26,9.1270625 L16.26,9.1270625 Z M2.93144681,9.1270625 C2.93144681,5.8643125 5.70823404,3.145375 9.04040426,3.145375 C12.3725745,3.145375 15.1493617,5.8643125 15.1493617,9.1270625 C15.1493617,12.3898125 12.3725745,15.10875 9.04040426,15.10875 C5.70823404,15.10875 2.93144681,12.38975 2.93144681,9.1270625 L2.93144681,9.1270625 Z" id="Shape"></path>
                <path d="M11.595,8.58325 L10.1511064,8.58325 C9.81791489,8.58325 9.5957234,8.36575 9.5957234,8.0394375 L9.5957234,6.081875 C9.5957234,5.755625 9.37359574,5.5380625 9.04034043,5.5380625 C8.70714894,5.5380625 8.48495745,5.7555625 8.48495745,6.081875 L8.48495745,8.0395 C8.48495745,8.9095625 9.26246809,9.670875 10.1510426,9.670875 L11.5949362,9.670875 C11.8170638,9.670875 12.1503191,9.453375 12.1503191,9.1270625 C12.150383,8.80075 11.9282553,8.58325 11.595,8.58325 L11.595,8.58325 Z" id="Shape"></path>
                <path d="M17.9260851,3.6891875 C17.0375106,2.275375 15.8157447,1.079 14.3717872,0.2089375 C14.0385957,0.1001875 13.7053404,0.2089375 13.5942766,0.4264375 C13.4832128,0.7526875 13.5942766,1.079 13.8164043,1.18775 C15.1492979,1.8403125 16.26,2.927875 17.0374468,4.2329375 C17.1485106,4.3416875 17.2595745,4.4504375 17.4817021,4.4504375 L17.7038298,4.4504375 C18.0371489,4.2329375 18.0371489,3.9066875 17.9260851,3.6891875 L17.9260851,3.6891875 Z" id="Shape"></path>
                <path d="M4.15321277,1.0789375 C4.48640426,0.8614375 4.48640426,0.535125 4.37534043,0.317625 C4.15321277,-0.008625 3.81995745,-0.008625 3.59782979,0.100125 C2.15393617,0.9701875 0.932170213,2.1665 0.0435957447,3.580375 C-0.0674680851,3.797875 0.0435957447,4.2329375 0.265723404,4.3416875 C0.376787234,4.4504375 0.487851064,4.4504375 0.598914894,4.4504375 C0.709978723,4.4504375 0.932106383,4.3416875 0.932106383,4.1241875 C1.70968085,2.927875 2.82038298,1.84025 4.15321277,1.0789375 L4.15321277,1.0789375 Z" id="Shape"></path>
            </g>
        </g>
    </g>
</svg>