<?xml version="1.0" encoding="UTF-8"?>
<svg width="17px" height="20px" viewBox="0 0 17 20" version="1.1" xmlns="http://www.w3.org/2000/svg" xmlns:xlink="http://www.w3.org/1999/xlink">
    <!-- Generator: Sketch 41.2 (35397) - http://www.bohemiancoding.com/sketch -->
    <title>icon-campaign-review</title>
    <desc>Created with Sketch.</desc>
    <defs>
        <linearGradient x1="100%" y1="0%" x2="-0.937391846%" y2="100%" id="linearGradient-1">
            <stop stop-color="#FF9F20" offset="0%"></stop>
            <stop stop-color="#FF721C" offset="100%"></stop>
        </linearGradient>
    </defs>
    <g id="Page-1" stroke="none" stroke-width="1" fill="none" fill-rule="evenodd">
        <g id="activity-types" transform="translate(-85.000000, -282.000000)">
            <g id="icon-campaign-review" transform="translate(85.000000, 282.000000)">
                <path d="M12.3707692,20 L1.29461538,20 C0.595,20 0.0261538462,19.4423077 0.0261538462,18.7564103 L0.0261538462,1.25641026 C0.0261538462,0.570512821 0.595,0.0128205128 1.29461538,0.0128205128 L15.725,0.0128205128 C16.4246154,0.0128205128 16.9934615,0.570512821 16.9934615,1.25641026 L16.9934615,15.474359 L12.3773077,15.474359 L12.3773077,20 L12.3707692,20 Z M2.45192308,3.21474359 C2.45192308,2.82000161 2.77564086,2.5 3.17275728,2.5 L13.8337812,2.5 C14.2318869,2.5 14.5546154,2.81724954 14.5546154,3.21474359 C14.5546154,3.60948557 14.2308976,3.92948718 13.8337812,3.92948718 L3.17275728,3.92948718 C2.77465154,3.92948718 2.45192308,3.61223764 2.45192308,3.21474359 Z M2.45192308,6.22115385 C2.45192308,5.82641186 2.77564086,5.50641026 3.17275728,5.50641026 L13.8337812,5.50641026 C14.2318869,5.50641026 14.5546154,5.82365979 14.5546154,6.22115385 C14.5546154,6.61589583 14.2308976,6.93589744 13.8337812,6.93589744 L3.17275728,6.93589744 C2.77465154,6.93589744 2.45192308,6.6186479 2.45192308,6.22115385 Z M2.45192308,9.23397436 C2.45192308,8.83923237 2.77564086,8.51923077 3.17275728,8.51923077 L13.8337812,8.51923077 C14.2318869,8.51923077 14.5546154,8.83648031 14.5546154,9.23397436 C14.5546154,9.62871634 14.2308976,9.94871795 13.8337812,9.94871795 L3.17275728,9.94871795 C2.77465154,9.94871795 2.45192308,9.63146841 2.45192308,9.23397436 Z M7.93115385,12.2403846 C7.93115385,11.8456426 8.25093253,11.525641 8.64067998,11.525641 L13.8516277,11.525641 C14.2434882,11.525641 14.5611538,11.8428906 14.5611538,12.2403846 C14.5611538,12.6351266 14.2413752,12.9551282 13.8516277,12.9551282 L8.64067998,12.9551282 C8.24881952,12.9551282 7.93115385,12.6378787 7.93115385,12.2403846 Z" id="Combined-Shape" fill="url(#linearGradient-1)"></path>
                <polygon id="Shape" fill="#FF7200" points="12.3707692 20 12.3707692 15.474359 16.9869231 15.474359"></polygon>
                <polygon id="Shape-Copy-2" fill="#000000" opacity="0.200000003" points="12.3707692 20 12.3707692 15.474359 16.9869231 15.474359"></polygon>
            </g>
        </g>
    </g>
</svg>