<?xml version="1.0" encoding="utf-8"?>
<!-- Generator: Adobe Illustrator 13.0.0, SVG Export Plug-In . SVG Version: 6.00 Build 14948)  -->
<!DOCTYPE svg PUBLIC "-//W3C//DTD SVG 1.1//EN" "http://www.w3.org/Graphics/SVG/1.1/DTD/svg11.dtd">
<svg version="1.1" id="Layer_1" xmlns="http://www.w3.org/2000/svg" xmlns:xlink="http://www.w3.org/1999/xlink" x="0px" y="0px"
	viewBox="0 0 512 512" enable-background="new 0 0 512 512" xml:space="preserve">
<path d="M256,51.2C142.677,51.2,51.2,143.36,51.2,256c0,113.322,92.16,204.8,204.8,204.8c113.322,0,204.8-92.159,204.8-204.8
	C460.8,142.677,368.64,51.2,256,51.2z M256,486.059c-61.44,0-119.467-23.894-163.157-67.584
	C49.152,374.784,25.259,317.439,25.259,256c0-61.44,23.893-119.467,67.584-163.157C136.533,49.152,194.56,25.259,256,25.259
	c61.44,0,119.467,23.893,163.157,67.584c43.69,43.69,67.584,101.717,67.584,163.157c0,61.439-23.894,119.467-67.584,163.157
	C375.467,462.165,317.44,486.059,256,486.059z"/>
<path d="M381.66,341.199l-46.133-46.126c11.696-18.227,18.559-39.86,18.559-63.132c0-64.738-52.462-117.207-117.199-117.207
	c-64.739,0-117.208,52.469-117.208,117.207c0,64.731,52.469,117.208,117.208,117.208c23.262,0,44.896-6.869,63.131-18.559
	l46.11,46.125c3.252,3.253,8.583,3.253,11.836,0l23.696-23.673C384.913,349.767,384.913,344.436,381.66,341.199z M236.887,315.663
	c-46.161,0-83.719-37.564-83.719-83.722c0-46.161,37.558-83.718,83.719-83.718c46.163,0,83.713,37.557,83.713,83.718
	C320.6,278.099,283.05,315.663,236.887,315.663z"/>
</svg>
